# xmcd
#
# Track frame offsets: 
#        150
#        15021
#        28934
#        40905
#        51050
#        59954
#        73119
#        85020
#        101978
#        115313
#        126970
#        141335
#        150810
#        167291
#        177325
#        186703
#        197939
#        210799
#        223580
#        235671
#        246528
#        257046
#        270533
#        282452
#        300291
#
# Disc length: 4242 seconds
#
# Revision: 0
# Processed by: cddbd v1.5.2PL0 Copyright (c) Steve Scherf et al.
# Submitted via: ExactAudioCopy v1.0b1
#
DISCID=6d109019
DTITLE=Robertino Loreti - Golden Hits 1960-1962
DYEAR=1962
DGENRE=Blues
TTITLE0=O Sole Mio
TTITLE1=Torna A Surriento
TTITLE2=Santa Lucia
TTITLE3=Mamma
TTITLE4=Jamaica
TTITLE5=Oh, Mein Papa
TTITLE6=Luma Rossa
TTITLE7=Romantica
TTITLE8=Guaglione
TTITLE9=Anema E Core
TTITLE10=Parlami D'Amore Mariu
TTITLE11=Pappagallo
TTITLE12=Spazzacamino
TTITLE13=Papere
TTITLE14=Buona Notte
TTITLE15=Signora Futura
TTITLE16=Serenade
TTITLE17=La Paloma
TTITLE18=Rondo La Nudo
TTITLE19=Les Gitans
TTITLE20=Cerasella
TTITLE21=Silenzio Cantatore
TTITLE22=Francesina
TTITLE23=Lettera a Pinocchio
TTITLE24=Ave Maria
EXTD=
EXTT0=
EXTT1=
EXTT2=
EXTT3=
EXTT4=
EXTT5=
EXTT6=
EXTT7=
EXTT8=
EXTT9=
EXTT10=
EXTT11=
EXTT12=
EXTT13=
EXTT14=
EXTT15=
EXTT16=
EXTT17=
EXTT18=
EXTT19=
EXTT20=
EXTT21=
EXTT22=
EXTT23=
EXTT24=
PLAYORDER=
